<svg width="24" height="24" viewBox="0 0 24 24" fill="none" xmlns="http://www.w3.org/2000/svg">
<path d="M21 5.98108C17.67 5.65108 14.32 5.48108 10.98 5.48108C9 5.48108 7.02 5.58108 5.04 5.78108L3 5.98108" stroke="#1F2024" stroke-width="2" stroke-linecap="round" stroke-linejoin="round"/>
<path d="M8.5 4.9711L8.72 3.6611C8.88 2.7111 9 2.0011 10.69 2.0011H13.31C15 2.0011 15.13 2.7511 15.28 3.6711L15.5 4.9711" stroke="#1F2024" stroke-width="2" stroke-linecap="round" stroke-linejoin="round"/>
<path d="M12 22.0011H7.5328C5.59145 22.0011 5.52883 20.7678 5.45229 19.1807L5 9.0011" stroke="#1F2024" stroke-width="2" stroke-linecap="round" stroke-linejoin="round"/>
<path d="M11 22.0011H16.1054C18.3241 22.0011 18.3956 20.7678 18.4831 19.1807L19 9.0011" stroke="#1F2024" stroke-width="2" stroke-linecap="round" stroke-linejoin="round"/>
<path d="M10.33 16.5011H13.66" stroke="#1F2024" stroke-width="2" stroke-linecap="round" stroke-linejoin="round"/>
<path d="M12.82 12.5011H14.5" stroke="#1F2024" stroke-width="2" stroke-linecap="round" stroke-linejoin="round"/>
<path d="M9.5 12.5011H10.33" stroke="#1F2024" stroke-width="2" stroke-linecap="round" stroke-linejoin="round"/>
</svg>
